<?xml version="1.0" standalone="no"?>
<!DOCTYPE svg PUBLIC "-//W3C//DTD SVG 20010904//EN"
 "http://www.w3.org/TR/2001/REC-SVG-20010904/DTD/svg10.dtd">
<svg version="1.0" xmlns="http://www.w3.org/2000/svg"
 width="460.000000pt" height="460.000000pt" viewBox="0 0 460.000000 460.000000"
 preserveAspectRatio="xMidYMid meet">
<metadata>
Created by potrace 1.16, written by Peter Selinger 2001-2019
</metadata>
<g transform="translate(0.000000,460.000000) scale(0.100000,-0.100000)"
fill="#000000" stroke="none">
<path d="M0 2300 l0 -2300 1045 0 c575 0 1045 3 1045 8 -1 13 -20 147 -26 177
l-6 30 36 -34 c20 -19 36 -41 36 -48 0 -7 5 -13 10 -13 6 0 15 -12 20 -26 15
-38 60 -94 77 -94 10 0 13 6 9 17 -4 9 -14 40 -22 67 -9 28 -22 69 -30 91 -18
52 -17 65 4 91 22 26 56 45 100 55 25 5 43 1 80 -17 l47 -24 22 27 c13 16 23
37 24 48 1 17 2 16 8 -4 10 -37 27 -36 35 1 5 25 2 36 -13 48 -10 8 -22 31
-27 50 -7 34 -8 34 -15 10 -7 -24 -7 -24 -8 -2 -1 13 -12 33 -24 45 -36 33
-50 66 -43 99 6 30 56 84 236 253 75 71 151 155 205 230 17 22 35 43 41 47 6
4 17 21 24 38 7 16 16 27 21 24 5 -3 9 2 9 10 0 8 6 21 13 28 7 7 24 29 37 48
37 53 40 56 124 140 44 43 83 77 88 74 4 -3 12 5 18 18 7 17 8 11 3 -22 -3
-25 -13 -50 -21 -56 -22 -16 -5 -37 23 -30 13 3 27 1 31 -5 4 -7 11 -98 16
-203 5 -105 13 -197 17 -204 4 -7 5 81 3 195 -2 124 0 222 6 243 8 27 10 -4
12 -140 1 -229 1 -228 139 -294 29 -14 59 -26 66 -26 7 0 24 -15 38 -34 18
-23 51 -44 113 -71 81 -35 94 -37 179 -36 90 2 93 1 176 -43 46 -24 101 -47
122 -50 39 -7 41 -12 31 -65 -8 -37 -11 -38 -77 -8 -29 13 -75 32 -103 42 -49
17 -51 19 -50 54 1 29 -4 38 -27 49 -15 7 -48 12 -75 10 l-47 -3 47 -23 c70
-35 74 -42 53 -110 -20 -63 -42 -95 -62 -88 -7 3 -19 -7 -28 -24 -20 -38 -19
-43 6 -30 16 9 11 -6 -27 -77 -25 -48 -59 -106 -75 -128 -16 -22 -57 -82 -91
-132 -34 -51 -65 -93 -70 -93 -4 0 -8 -14 -8 -31 0 -37 -17 -72 -31 -63 -6 4
-4 13 6 24 11 12 14 26 9 44 -4 15 -2 26 4 26 16 0 43 61 36 84 -4 16 -3 18 5
7 8 -12 11 -9 16 15 4 16 8 34 10 41 2 6 -1 13 -6 15 -6 2 -4 15 5 33 18 33
22 100 6 90 -13 -8 -13 -8 5 40 20 56 20 71 -1 54 -14 -12 -16 -11 -12 6 2 11
10 19 18 17 11 -3 11 0 1 12 -7 9 -17 13 -22 10 -5 -3 -6 2 -3 10 7 19 20 21
27 4 3 -7 6 2 6 20 1 18 -4 42 -9 53 -8 13 -7 19 0 19 20 0 5 99 -19 124 -12
12 -21 31 -21 42 1 14 4 12 15 -11 12 -24 14 -25 9 -5 -6 21 -55 93 -60 87 -1
-1 6 -35 17 -75 14 -54 18 -105 17 -198 -1 -104 1 -129 15 -145 9 -10 13 -19
7 -19 -5 0 -13 7 -18 16 -7 12 -12 -10 -17 -72 -4 -49 -10 -93 -14 -99 -5 -5
-19 -55 -32 -110 -20 -86 -28 -105 -60 -137 l-36 -37 603 -1 604 0 0 253 0
254 -162 2 c-89 1 -170 7 -180 12 -10 6 -33 8 -50 5 -43 -7 -60 8 -47 40 5 14
12 56 15 95 6 59 10 69 26 69 10 0 22 -10 27 -22 5 -13 17 -41 25 -63 l16 -40
-3 42 c-2 30 1 43 10 43 7 0 13 7 13 15 0 8 8 15 18 15 19 0 118 -22 225 -50
l67 -17 0 1973 0 1974 -485 0 c-300 0 -485 -4 -485 -10 0 -5 6 -13 14 -17 52
-29 325 -293 346 -335 7 -12 -19 8 -58 45 -38 38 -78 74 -89 80 -11 7 -55 36
-97 65 -43 28 -80 52 -83 52 -4 0 -28 14 -55 31 -57 37 -69 34 -32 -7 90 -102
132 -163 198 -285 13 -25 46 -68 73 -95 63 -66 223 -250 252 -291 12 -18 17
-33 11 -33 -6 0 -8 -5 -5 -11 13 -19 34 25 35 70 0 67 9 44 11 -31 2 -60 6
-71 41 -116 21 -28 38 -54 38 -57 0 -3 4 -11 10 -18 50 -61 60 -77 51 -77 -6
0 -11 4 -11 8 0 10 -129 152 -139 152 -4 0 -13 -16 -20 -36 -7 -19 -15 -34
-17 -31 -2 2 3 23 11 47 15 43 8 70 -19 70 -6 0 -33 21 -59 47 -55 52 -218
185 -223 180 -2 -1 24 -56 56 -122 63 -128 118 -260 118 -285 0 -8 3 -28 7
-45 4 -16 -23 29 -60 100 -68 132 -123 225 -132 225 -7 0 5 -85 28 -203 22
-115 21 -107 10 -107 -5 0 -17 21 -26 48 -8 26 -22 58 -30 72 l-14 25 -1 -30
c-1 -28 -2 -28 -19 15 -10 25 -24 65 -31 88 -15 56 -24 48 -11 -9 6 -24 10
-60 10 -79 0 -19 -11 17 -24 81 -13 64 -28 125 -33 135 -6 11 -24 49 -41 86
-27 62 -44 89 -106 168 -33 43 -187 190 -199 190 -6 0 -28 9 -49 20 -21 11
-42 18 -47 15 -6 -3 -34 9 -62 28 -98 63 -124 76 -136 68 -12 -7 -3 -60 16
-84 14 -20 64 -156 60 -167 -3 -10 -57 66 -86 120 -7 14 -22 34 -33 46 -10 11
-19 26 -19 32 0 7 -4 12 -9 12 -5 0 -21 19 -34 43 -34 57 -54 74 -70 58 -9 -9
-9 -15 1 -29 40 -56 175 -343 142 -302 -11 14 -20 28 -20 32 0 14 -92 201
-118 242 -14 23 -39 58 -55 79 l-29 37 -1384 0 -1384 0 0 -2300z m2810 1740
c13 -13 51 -72 48 -74 -11 -7 -150 -28 -183 -27 -34 1 -47 8 -82 46 -54 55
-55 71 -5 49 43 -19 149 -37 164 -28 10 6 7 48 -8 94 -6 20 -1 18 27 -15 19
-22 36 -42 39 -45z m-471 -186 c1 -34 -2 -81 -5 -106 l-6 -45 -44 5 c-41 4
-46 2 -79 -34 -29 -32 -39 -37 -53 -28 -19 13 -28 91 -17 164 6 35 9 41 17 27
9 -16 11 -16 41 -1 18 9 39 20 47 24 8 4 29 40 45 80 l30 73 12 -49 c6 -27 12
-76 12 -110z m234 -307 c-5 -28 31 -77 57 -77 10 0 27 -13 37 -30 9 -16 21
-30 25 -30 4 0 8 -5 8 -11 0 -6 10 -24 23 -39 12 -16 33 -45 47 -66 14 -20 35
-47 48 -59 12 -12 22 -25 22 -27 0 -3 -32 -8 -71 -12 -38 -3 -96 -15 -127 -26
-31 -11 -62 -20 -69 -20 -10 0 -13 48 -13 223 0 122 4 216 9 209 4 -7 6 -23 4
-35z m1307 -98 c7 -11 18 -42 26 -68 14 -47 88 -133 96 -110 2 6 3 -8 3 -31 0
-22 5 -44 11 -48 6 -4 14 -16 18 -26 10 -30 27 -5 33 48 3 26 8 44 11 41 9 -9
2 -99 -9 -109 -5 -6 -9 -16 -9 -22 0 -17 153 -145 205 -173 50 -27 36 -27 -40
0 -126 44 -205 94 -265 168 -85 103 -103 150 -104 283 -1 70 5 83 24 47z
m-2381 -293 c1 6 8 11 16 11 11 0 12 -3 3 -14 -8 -10 -8 -17 -1 -24 8 -8 14 0
23 25 6 20 16 33 22 30 7 -4 7 -9 0 -13 -6 -3 -13 -20 -17 -36 -5 -21 -4 -26
3 -16 8 11 11 10 16 -5 3 -10 4 -4 2 14 -3 37 9 43 18 9 3 -13 23 -56 45 -95
60 -110 60 -107 -7 -110 -31 -1 -97 -11 -147 -21 -49 -11 -91 -18 -92 -18 -6
6 74 223 85 230 6 4 11 20 11 35 l-1 27 -8 -30 c-10 -38 -12 -9 -3 36 l6 33
13 -39 c6 -22 12 -35 13 -29z m1470 -67 l72 -66 -88 -6 c-65 -4 -113 -15 -183
-41 -189 -69 -230 -90 -230 -115 0 -8 -3 -11 -6 -8 -8 7 12 89 29 126 28 57
269 187 328 177 3 -1 38 -31 78 -67z m657 -51 c4 -7 2 -8 -4 -4 -7 4 -12 2
-12 -4 0 -7 7 -9 16 -6 20 8 54 -20 54 -44 0 -9 5 -21 11 -27 14 -14 40 -115
27 -107 -6 4 -3 -4 5 -17 23 -35 49 -195 41 -253 -7 -56 -35 -124 -74 -181
-50 -74 -118 -192 -130 -229 -6 -20 -26 -47 -43 -60 -35 -26 -92 -42 -101 -28
-21 34 -12 118 16 145 26 25 74 54 100 61 44 10 150 168 128 190 -5 5 -10 17
-10 25 0 9 -13 44 -29 78 -16 34 -33 82 -36 107 -7 42 -5 46 19 57 19 9 25 17
20 31 -3 10 -1 18 4 18 5 0 12 -9 15 -20 3 -11 1 -20 -4 -20 -5 0 -9 -4 -9
-10 0 -5 6 -10 14 -10 7 0 16 -10 19 -22 9 -36 47 -141 53 -147 3 -3 3 28 0
69 -4 41 -8 124 -11 184 -3 73 -9 116 -20 132 -14 21 -16 22 -45 8 -16 -9 -30
-19 -30 -23 0 -4 -7 -16 -15 -27 -13 -17 -14 -11 -15 61 0 73 2 81 20 82 11 1
23 -3 26 -9z m-579 -50 c13 -14 7 -16 -56 -22 -139 -14 -267 -70 -352 -155
-50 -51 -117 -156 -106 -167 2 -3 34 26 70 63 l66 68 16 -37 c8 -21 15 -47 15
-58 0 -17 4 -19 28 -14 15 4 41 13 59 21 21 8 70 13 140 12 96 -1 103 -3 66
-12 -41 -9 -58 -26 -30 -28 21 -2 -56 -20 -108 -25 -27 -3 -53 -9 -57 -12 -10
-10 190 5 240 18 24 5 47 8 53 5 5 -4 9 -2 9 4 0 5 13 19 28 30 l28 19 -12
-81 c-19 -128 -48 -215 -105 -319 -5 -10 -7 -18 -5 -18 13 0 166 260 166 282
0 7 7 22 16 33 13 17 16 18 24 5 23 -36 -2 -236 -40 -317 -16 -35 -28 -63 -26
-63 4 0 54 74 72 105 6 11 26 47 44 80 18 33 34 62 36 64 6 6 -4 -49 -23 -132
-20 -87 -11 -100 27 -37 15 26 22 3 10 -35 -7 -20 -9 -48 -5 -63 7 -24 10 -20
31 43 27 81 27 80 14 -43 -24 -225 -97 -421 -231 -625 -22 -32 -39 -61 -39
-65 0 -19 -309 -390 -410 -492 -69 -70 -94 -89 -133 -99 -73 -21 -150 -10
-224 32 -35 20 -100 52 -145 73 -46 20 -87 40 -93 44 -5 4 -32 20 -60 35 -86
47 -168 95 -215 125 -25 16 -62 40 -84 52 -21 13 -46 28 -55 33 -27 18 -144
137 -196 200 -28 33 -53 62 -58 63 -21 10 -148 215 -150 243 -1 10 -5 19 -9
19 -4 0 -8 4 -8 9 0 10 28 8 67 -4 13 -4 21 -10 19 -14 -3 -4 4 -7 14 -7 26 0
8 21 -39 47 -34 18 -35 19 -7 12 16 -3 41 -12 55 -19 47 -25 42 -15 -22 49
-36 34 -74 80 -86 102 -12 22 -25 47 -30 55 -25 39 -41 85 -32 88 5 2 7 10 4
17 -3 8 33 -24 79 -71 105 -109 159 -144 76 -50 -54 62 -145 233 -131 247 4 4
26 -8 48 -27 43 -37 69 -46 40 -14 -19 21 -8 29 12 9 8 -8 21 -8 48 1 21 7 40
8 44 4 10 -15 44 -14 76 1 17 7 43 19 59 25 55 20 20 19 -38 -1 -48 -18 -60
-19 -67 -8 -11 18 20 52 40 44 8 -3 12 -3 9 1 -11 10 31 39 97 67 73 30 125
40 145 27 12 -8 12 -10 -5 -10 -17 0 -17 -2 -5 -10 12 -8 11 -10 -6 -10 -11 0
-29 -6 -39 -14 -11 -8 -26 -12 -35 -9 -12 4 -12 3 -1 -5 11 -8 10 -12 -5 -22
-46 -29 21 2 86 40 79 46 91 59 61 67 -26 7 -35 34 -20 67 12 25 12 25 38 7
14 -9 34 -16 43 -13 15 3 16 7 6 25 -6 12 -18 27 -27 34 -10 8 -11 12 -4 13 6
0 15 -5 18 -11 4 -6 13 -8 21 -5 23 9 64 -38 64 -72 0 -43 -43 -189 -77 -259
-38 -80 -38 -83 -7 -43 16 19 54 61 86 92 32 32 58 64 58 72 0 7 6 19 14 26
12 9 16 5 22 -26 5 -27 1 -50 -15 -87 -11 -28 -19 -52 -17 -54 6 -6 64 102 72
132 7 29 12 29 77 1 22 -10 36 -12 32 -7 -3 6 -2 11 4 11 5 0 13 -4 16 -10 3
-5 15 -10 27 -10 13 0 18 -5 15 -14 -4 -10 -1 -13 9 -9 8 3 25 -2 39 -11 14
-9 25 -15 25 -12 0 2 26 -2 58 -10 31 -7 73 -13 92 -13 l35 1 -46 16 c-74 27
-163 100 -153 126 3 7 1 17 -5 21 -7 3 -8 0 -5 -10 12 -30 -23 -5 -73 52 -50
58 -68 87 -42 67 8 -6 37 -19 64 -29 28 -10 57 -23 65 -30 8 -7 37 -15 64 -19
28 -3 59 -15 71 -26 13 -12 28 -17 42 -14 11 3 24 1 27 -4 4 -6 -2 -8 -14 -5
-11 3 -20 1 -20 -5 0 -13 44 -24 48 -12 2 6 15 4 30 -4 15 -7 43 -17 62 -20
l35 -7 -40 19 c-54 26 -117 86 -160 152 -44 68 -49 87 -42 161 5 59 21 94 38
83 5 -3 9 1 9 8 0 9 3 9 10 -2 13 -21 12 -58 -5 -105 -8 -21 -13 -41 -11 -42
1 -2 20 31 42 73 47 91 130 177 209 216 48 23 140 54 210 72 36 9 116 -1 132
-16z m129 -111 c6 -6 -7 -112 -15 -125 -3 -5 -30 -13 -58 -17 l-53 -7 0 55 c0
31 -3 63 -7 73 -5 13 -3 16 10 11 8 -3 21 1 28 10 9 11 24 14 52 10 21 -3 41
-7 43 -10z m-1531 -84 c20 -27 36 -52 36 -58 0 -5 13 -17 29 -25 27 -14 18
-15 -123 -15 -131 0 -162 -3 -221 -23 -38 -12 -70 -21 -72 -19 -1 1 14 41 34
89 42 99 28 93 199 96 l83 2 35 -47z m68 -129 c52 -18 65 -30 48 -47 -6 -6
-11 -7 -11 -1 0 11 -318 11 -385 0 -29 -4 -34 -4 -20 3 12 6 15 10 6 10 -30 2
2 15 77 32 100 22 224 24 285 3z m1816 -223 c1 -33 1 -33 19 -12 9 11 34 27
55 36 35 15 37 14 37 -5 0 -11 -25 -45 -55 -77 -39 -41 -53 -63 -50 -78 3 -11
2 -14 -1 -7 -3 6 -10 9 -16 6 -5 -3 -3 7 5 22 15 31 12 58 -5 48 -7 -5 -9 2
-4 20 10 41 0 31 -31 -31 -34 -71 -32 -67 -38 -61 -3 3 -1 18 5 34 6 16 15 50
20 76 5 26 17 64 26 85 l17 38 7 -30 c4 -16 8 -45 9 -64z m-2139 44 c0 -29 17
-63 47 -93 21 -21 16 -29 -30 -47 -33 -12 -49 -14 -70 -6 -39 15 -107 71 -107
88 0 8 4 12 10 8 5 -3 28 13 51 35 24 23 48 39 56 36 8 -3 11 -2 8 4 -3 5 4 8
15 7 15 -1 20 -8 20 -32z m2652 -1819 c29 -12 65 -28 79 -33 22 -9 25 -16 21
-47 -2 -20 -8 -38 -12 -41 -9 -5 -59 11 -137 46 -41 18 -53 28 -53 45 0 13 -4
26 -10 29 -5 3 -10 13 -10 22 0 20 48 12 122 -21z"/>
<path d="M2793 1741 c-21 -18 -87 -35 -298 -81 -55 -12 -129 -30 -165 -41 -94
-29 -287 -69 -335 -69 -52 0 -60 -8 -32 -30 23 -18 153 -60 184 -60 17 1 17 1
0 11 -9 6 -15 14 -12 18 2 5 -9 11 -25 15 -41 8 -38 23 8 36 20 5 93 26 162
46 167 49 456 111 466 101 8 -8 -10 -47 -25 -52 -9 -3 -17 -14 -18 -25 -2 -18
5 -15 46 19 53 44 91 105 76 120 -6 6 -18 3 -32 -8z"/>
</g>
</svg>
